<mxfile host="Electron" modified="2023-12-05T23:43:14.608Z" agent="Mozilla/5.0 (Windows NT 10.0; Win64; x64) AppleWebKit/537.36 (KHTML, like Gecko) draw.io/22.1.2 Chrome/114.0.5735.289 Electron/25.9.4 Safari/537.36" etag="N1_qBWiydtiEtAlWLLX_" version="22.1.2" type="device">
  <diagram id="C5RBs43oDa-KdzZeNtuy" name="Page-1">
    <mxGraphModel dx="933" dy="887" grid="1" gridSize="10" guides="1" tooltips="1" connect="1" arrows="1" fold="1" page="1" pageScale="1" pageWidth="827" pageHeight="1169" math="0" shadow="0">
      <root>
        <mxCell id="WIyWlLk6GJQsqaUBKTNV-0" />
        <mxCell id="WIyWlLk6GJQsqaUBKTNV-1" parent="WIyWlLk6GJQsqaUBKTNV-0" />
        <mxCell id="4NzLS6ce3iaJwvpWcVsZ-3" style="edgeStyle=orthogonalEdgeStyle;rounded=0;orthogonalLoop=1;jettySize=auto;html=1;exitX=0.5;exitY=1;exitDx=0;exitDy=0;" edge="1" parent="WIyWlLk6GJQsqaUBKTNV-1" source="4NzLS6ce3iaJwvpWcVsZ-0" target="4NzLS6ce3iaJwvpWcVsZ-2">
          <mxGeometry relative="1" as="geometry" />
        </mxCell>
        <mxCell id="4NzLS6ce3iaJwvpWcVsZ-0" value="START" style="ellipse;whiteSpace=wrap;html=1;" vertex="1" parent="WIyWlLk6GJQsqaUBKTNV-1">
          <mxGeometry x="240" y="110" width="120" height="80" as="geometry" />
        </mxCell>
        <mxCell id="4NzLS6ce3iaJwvpWcVsZ-1" value="END" style="ellipse;whiteSpace=wrap;html=1;" vertex="1" parent="WIyWlLk6GJQsqaUBKTNV-1">
          <mxGeometry x="240" y="740" width="120" height="80" as="geometry" />
        </mxCell>
        <mxCell id="4NzLS6ce3iaJwvpWcVsZ-5" style="edgeStyle=orthogonalEdgeStyle;rounded=0;orthogonalLoop=1;jettySize=auto;html=1;exitX=0.5;exitY=1;exitDx=0;exitDy=0;" edge="1" parent="WIyWlLk6GJQsqaUBKTNV-1" source="4NzLS6ce3iaJwvpWcVsZ-2" target="4NzLS6ce3iaJwvpWcVsZ-4">
          <mxGeometry relative="1" as="geometry" />
        </mxCell>
        <mxCell id="4NzLS6ce3iaJwvpWcVsZ-2" value="char buffer[1000]&lt;br&gt;FILE *filePointer" style="rounded=0;whiteSpace=wrap;html=1;" vertex="1" parent="WIyWlLk6GJQsqaUBKTNV-1">
          <mxGeometry x="240" y="230" width="120" height="60" as="geometry" />
        </mxCell>
        <mxCell id="4NzLS6ce3iaJwvpWcVsZ-8" style="edgeStyle=orthogonalEdgeStyle;rounded=0;orthogonalLoop=1;jettySize=auto;html=1;exitX=0.5;exitY=1;exitDx=0;exitDy=0;" edge="1" parent="WIyWlLk6GJQsqaUBKTNV-1" source="4NzLS6ce3iaJwvpWcVsZ-4" target="4NzLS6ce3iaJwvpWcVsZ-7">
          <mxGeometry relative="1" as="geometry" />
        </mxCell>
        <mxCell id="4NzLS6ce3iaJwvpWcVsZ-4" value="open filePointer lấy mode write để ghi nội dung" style="rounded=0;whiteSpace=wrap;html=1;" vertex="1" parent="WIyWlLk6GJQsqaUBKTNV-1">
          <mxGeometry x="240" y="330" width="120" height="60" as="geometry" />
        </mxCell>
        <mxCell id="4NzLS6ce3iaJwvpWcVsZ-10" style="edgeStyle=orthogonalEdgeStyle;rounded=0;orthogonalLoop=1;jettySize=auto;html=1;exitX=0.5;exitY=1;exitDx=0;exitDy=0;" edge="1" parent="WIyWlLk6GJQsqaUBKTNV-1" source="4NzLS6ce3iaJwvpWcVsZ-7" target="4NzLS6ce3iaJwvpWcVsZ-9">
          <mxGeometry relative="1" as="geometry" />
        </mxCell>
        <mxCell id="4NzLS6ce3iaJwvpWcVsZ-7" value="Nhap noi dung ban muon ghi vao file:" style="shape=parallelogram;perimeter=parallelogramPerimeter;whiteSpace=wrap;html=1;fixedSize=1;" vertex="1" parent="WIyWlLk6GJQsqaUBKTNV-1">
          <mxGeometry x="205" y="440" width="190" height="100" as="geometry" />
        </mxCell>
        <mxCell id="4NzLS6ce3iaJwvpWcVsZ-11" style="edgeStyle=orthogonalEdgeStyle;rounded=0;orthogonalLoop=1;jettySize=auto;html=1;exitX=0.5;exitY=1;exitDx=0;exitDy=0;" edge="1" parent="WIyWlLk6GJQsqaUBKTNV-1" source="4NzLS6ce3iaJwvpWcVsZ-9" target="4NzLS6ce3iaJwvpWcVsZ-1">
          <mxGeometry relative="1" as="geometry" />
        </mxCell>
        <mxCell id="4NzLS6ce3iaJwvpWcVsZ-9" value="Dùng hàm fgets nhập 1 dãy ký tự, lưu vào file bằng fputs" style="rounded=0;whiteSpace=wrap;html=1;" vertex="1" parent="WIyWlLk6GJQsqaUBKTNV-1">
          <mxGeometry x="240" y="580" width="120" height="60" as="geometry" />
        </mxCell>
      </root>
    </mxGraphModel>
  </diagram>
</mxfile>
